<svg width="224" height="153" viewBox="0 0 224 153" fill="none" xmlns="http://www.w3.org/2000/svg">
<g clip-path="url(#clip0_614_2248)">
<path d="M67.0518 75.1365V91.2504C67.3748 92.5919 68.4879 96.4264 72.1625 99.4388C74.88 101.666 77.7106 102.387 79.132 102.648H143.52C144.792 102.593 148.58 102.267 152.083 99.4388C156.113 96.186 156.999 91.8574 157.194 90.7271V76.316L140.466 58.6309V80.6393C140.494 81.0112 140.614 83.0567 139.072 84.7661C137.273 86.7597 134.728 86.6216 134.425 86.6003H88.8904C88.5378 86.6508 86.7799 86.862 85.1728 85.6839C83.8241 84.6943 83.419 83.3396 83.314 82.9331V58.6322L67.0518 75.1365Z" fill="url(#paint0_linear_614_2248)"/>
<path d="M67.0518 75.1366V55.4207C67.1742 54.3448 67.4986 52.6699 68.4462 50.8357C69.3453 49.0944 70.4531 47.8937 71.2337 47.1672C81.147 37.3849 91.0588 27.6039 100.972 17.8217C102.222 16.7511 104.392 15.1653 107.477 14.1532C108.872 13.6962 111.118 12.983 113.982 13.2367C118.176 13.6073 121.099 15.8201 122.346 16.9052C122.439 16.9743 123.275 17.6158 123.275 18.7395C123.275 18.8537 123.256 19.899 122.346 20.5737C109.292 33.2156 96.2368 45.8575 83.1821 58.4995L67.0518 75.1366Z" fill="#FFA216"/>
<path d="M157.194 76.3142V56.7948C157.244 55.7893 157.198 54.3363 156.73 52.668C156.347 51.308 155.804 50.2295 155.335 49.4591C148.366 42.5816 141.396 35.7041 134.425 28.8253C134.196 28.6035 133.557 28.0443 132.566 27.9089C131.027 27.6977 129.93 28.6859 129.779 28.8253C127.123 31.4021 124.469 33.9788 121.813 36.5542C121.656 36.8916 121.476 37.383 121.415 37.9953C121.309 39.0645 121.624 39.9079 121.813 40.321C128.014 46.4401 134.215 52.5591 140.416 58.6782L157.194 76.3142Z" fill="#FFA216"/>
<path d="M12.1489 133.616H20.0944C20.675 133.616 21.1639 134.098 21.1639 134.701V144.894C21.1639 145.407 20.7362 145.829 20.2167 145.829H19.3914C18.9637 145.829 18.5971 145.527 18.4748 145.136L17.9553 143.205C16.4274 145.075 14.1657 146.191 11.0794 146.191C4.75355 146.191 0.200195 141.517 0.200195 135.274C0.200195 129.032 4.75393 124.328 11.0794 124.328C14.2272 124.328 16.9469 125.503 18.8723 127.434C19.3306 127.916 19.2695 128.73 18.6888 129.092L16.1216 130.781C15.6939 131.052 15.1438 130.992 14.7769 130.66C13.8603 129.816 12.6374 129.303 11.079 129.303C7.35093 129.303 5.45613 132.288 5.45613 135.274C5.45613 138.26 7.35093 141.245 11.079 141.245C13.9822 141.245 15.6327 139.707 16.3353 137.716H12.1485C11.5679 137.716 11.079 137.234 11.079 136.631V134.701C11.079 134.098 11.5679 133.615 12.1485 133.615L12.1489 133.616Z" fill="white"/>
<path d="M39.498 138.592C39.498 139.195 39.0091 139.677 38.4285 139.677H28.2518C28.7713 141.457 30.269 142.271 32.1634 142.271C33.3858 142.271 34.3334 141.818 34.9137 141.336C35.1889 141.095 35.5555 141.064 35.8613 141.245L38.0309 142.512C38.4587 142.783 38.5504 143.357 38.245 143.748C36.9002 145.226 34.7612 146.191 32.1634 146.191C26.9071 146.191 23.4539 142.934 23.4539 138.2C23.4539 133.676 26.9988 130.178 31.4299 130.178C35.7695 130.178 39.5894 132.892 39.498 138.592ZM34.9752 136.722C34.5781 134.913 33.3251 134.098 31.6137 134.098C30.0247 134.098 28.7411 135.033 28.2828 136.722H34.9752Z" fill="white"/>
<path d="M49.6126 134.581H47.6566V139.406C47.6566 141.004 48.2372 141.818 49.796 141.818H49.8878C50.3461 141.788 50.7131 142.15 50.7131 142.602V145.196C50.7131 145.588 50.4378 145.919 50.0407 145.98C49.6435 146.04 49.1848 146.1 48.574 146.1C43.8066 146.1 42.7065 142.904 42.7065 139.888V134.58H41.606C40.9948 134.58 40.5059 134.098 40.5059 133.495V131.625C40.5059 131.022 40.9948 130.539 41.606 130.539H42.7065V128.398C42.7065 127.825 43.1954 127.343 43.776 127.343H46.5874C47.1681 127.343 47.657 127.825 47.657 128.398V130.539H49.6129C50.2242 130.539 50.7131 131.022 50.7131 131.625V133.495C50.7131 134.098 50.2242 134.58 49.6129 134.58L49.6126 134.581Z" fill="white"/>
<path d="M73.0503 124.72H76.5647C77.1453 124.72 77.6342 125.203 77.6342 125.805V144.743C77.6342 145.347 77.1453 145.829 76.5647 145.829H73.478C72.8974 145.829 72.4085 145.347 72.4085 144.743V133.284L67.1522 141.818C66.9385 142.15 66.6021 142.331 66.205 142.331H65.502C65.1354 142.331 64.7685 142.15 64.5854 141.818L59.3291 133.284V144.743C59.3291 145.347 58.8402 145.829 58.229 145.829H55.1729C54.5617 145.829 54.0728 145.347 54.0728 144.743V125.805C54.0728 125.203 54.5617 124.72 55.1729 124.72H58.6567C59.2373 124.72 59.7568 125.021 60.0626 125.504L65.8384 134.882L71.6448 125.504C71.9505 125.021 72.47 124.72 73.0507 124.72H73.0503Z" fill="white"/>
<path d="M92.2701 130.54H95.3873C95.968 130.54 96.3655 131.113 96.151 131.656C94.8678 134.822 91.2617 143.929 90.4364 145.829C89.214 148.694 87.7779 151.649 84.2023 151.649C83.744 151.649 83.3465 151.619 82.9799 151.589C82.5827 151.529 82.2769 151.197 82.2769 150.774V148.242C82.2769 147.819 82.6435 147.457 83.0712 147.427C84.5689 147.397 85.3326 146.552 85.9133 144.924C85.6996 144.381 81.6348 134.942 80.2292 131.655C79.9846 131.143 80.3818 130.54 80.993 130.54H84.049C84.6297 130.54 85.1492 130.902 85.3323 131.444L88.1437 139.194L90.9857 131.444C91.1688 130.902 91.6883 130.54 92.2689 130.54L92.2701 130.54Z" fill="white"/>
<path d="M115.189 132.289C115.189 137.265 111.369 139.557 106.723 139.557H103.973V144.744C103.973 145.347 103.484 145.829 102.904 145.829H99.8476C99.2363 145.829 98.7471 145.347 98.7471 144.744V125.805C98.7471 125.203 99.2363 124.72 99.8476 124.72H106.723C112.041 124.72 115.189 127.735 115.189 132.289V132.289ZM109.902 132.289C109.902 130.661 108.741 129.575 106.723 129.575H103.973V134.973H106.723C108.618 134.973 109.902 134.129 109.902 132.289Z" fill="white"/>
<path d="M126.708 130.269C127.197 130.178 127.686 130.54 127.686 131.052V134.52C127.686 135.003 127.258 135.365 126.8 135.335C123.194 135.094 122.765 137.386 122.765 139.798V144.743C122.765 145.346 122.277 145.829 121.696 145.829H118.884C118.304 145.829 117.815 145.346 117.815 144.743V131.625C117.815 131.022 118.304 130.54 118.884 130.54H121.696C122.277 130.54 122.765 131.022 122.765 131.625V132.862C123.682 131.444 125.18 130.54 126.708 130.268L126.708 130.269Z" fill="white"/>
<path d="M145.502 138.2C145.502 142.723 142.048 146.221 137.189 146.221C132.361 146.221 128.876 142.723 128.876 138.2C128.876 133.646 132.361 130.178 137.189 130.178C142.048 130.178 145.502 133.646 145.502 138.2ZM140.52 138.2C140.52 136.42 139.206 134.913 137.189 134.913C135.203 134.913 133.889 136.42 133.889 138.2C133.889 139.979 135.203 141.457 137.189 141.457C139.206 141.457 140.52 139.979 140.52 138.2Z" fill="white"/>
<path d="M164.691 138.199C164.691 142.18 162.094 146.191 157.265 146.191C155.187 146.191 153.812 145.437 152.895 144.321V150.593C152.895 151.166 152.406 151.649 151.795 151.649H149.014C148.433 151.649 147.945 151.166 147.945 150.593V131.625C147.945 131.022 148.433 130.54 149.014 130.54H152.07C152.529 130.54 152.895 130.902 152.895 131.354V132.048C153.812 130.932 155.187 130.177 157.266 130.177C162.094 130.177 164.692 134.188 164.692 138.199L164.691 138.199ZM159.679 138.199C159.679 136.299 158.426 134.912 156.379 134.912C154.515 134.912 153.048 136.149 153.048 138.199C153.048 140.22 154.515 141.457 156.379 141.457C158.426 141.457 159.679 140.069 159.679 138.199Z" fill="white"/>
<path d="M182.292 138.592C182.292 139.195 181.804 139.677 181.223 139.677H171.046C171.566 141.457 173.063 142.271 174.958 142.271C176.18 142.271 177.128 141.818 177.708 141.336C177.983 141.095 178.35 141.064 178.656 141.245L180.825 142.512C181.253 142.783 181.345 143.357 181.039 143.748C179.694 145.226 177.555 146.191 174.958 146.191C169.702 146.191 166.248 142.934 166.248 138.2C166.248 133.676 169.794 130.178 174.225 130.178C178.564 130.178 182.384 132.892 182.292 138.592ZM177.769 136.722C177.372 134.913 176.119 134.098 174.408 134.098C172.819 134.098 171.535 135.033 171.077 136.722H177.769Z" fill="white"/>
<path d="M193.689 130.269C194.178 130.178 194.667 130.54 194.667 131.052V134.52C194.667 135.003 194.239 135.365 193.781 135.335C190.175 135.094 189.747 137.386 189.747 139.798V144.743C189.747 145.346 189.258 145.829 188.677 145.829H185.866C185.285 145.829 184.796 145.346 184.796 144.743V131.625C184.796 131.022 185.285 130.54 185.866 130.54H188.677C189.258 130.54 189.747 131.022 189.747 131.625V132.862C190.664 131.444 192.161 130.54 193.689 130.268L193.689 130.269Z" fill="white"/>
<path d="M204.996 134.581H203.04V139.406C203.04 141.004 203.621 141.818 205.179 141.818H205.271C205.729 141.788 206.096 142.15 206.096 142.602V145.196C206.096 145.588 205.821 145.919 205.424 145.98C205.026 146.04 204.568 146.1 203.957 146.1C199.19 146.1 198.089 142.904 198.089 139.888V134.58H196.989C196.378 134.58 195.889 134.098 195.889 133.495V131.625C195.889 131.022 196.378 130.539 196.989 130.539H198.089V128.398C198.089 127.825 198.579 127.343 199.159 127.343H201.97C202.551 127.343 203.04 127.825 203.04 128.398V130.539H204.996C205.607 130.539 206.096 131.022 206.096 131.625V133.495C206.096 134.098 205.607 134.581 204.996 134.581Z" fill="white"/>
<path d="M220.121 130.54H223.238C223.819 130.54 224.217 131.113 224.002 131.656C222.719 134.822 219.113 143.929 218.287 145.829C217.065 148.694 215.629 151.649 212.053 151.649C211.595 151.649 211.197 151.619 210.831 151.589C210.433 151.529 210.128 151.197 210.128 150.774V148.242C210.128 147.819 210.495 147.457 210.922 147.427C212.42 147.397 213.184 146.552 213.764 144.924C213.551 144.381 209.486 134.942 208.08 131.655C207.836 131.143 208.233 130.54 208.844 130.54H211.9C212.481 130.54 213 130.902 213.183 131.444L215.995 139.194L218.837 131.444C219.02 130.902 219.539 130.54 220.12 130.54L220.121 130.54Z" fill="white"/>
</g>
<defs>
<linearGradient id="paint0_linear_614_2248" x1="112.124" y1="58.6295" x2="112.124" y2="102.648" gradientUnits="userSpaceOnUse">
<stop stop-color="#FF4416"/>
<stop offset="0.444" stop-color="#FF6416"/>
<stop offset="0.451" stop-color="#FF6516"/>
<stop offset="0.582" stop-color="#FF7F16"/>
<stop offset="0.716" stop-color="#FF9216"/>
<stop offset="0.853" stop-color="#FF9E16"/>
<stop offset="1" stop-color="#FFA216"/>
</linearGradient>
<clipPath id="clip0_614_2248">
<rect width="224" height="153" fill="white"/>
</clipPath>
</defs>
</svg>
